# xmcd CD database file
#
# Track frame offsets:
#	150
#	10075
#	23277
#	29680
#	40830
#	56630
#	67735
#	79225
#	97030
#
# Disc length: 1463 seconds
#
# Revision: 0
# Processed by: cddbd v1.5PL3 Copyright (c) Steve Scherf et al.
# Submitted via: CDex 1.51
#
DISCID=6405b509
DTITLE=FULLSCRATCH - ALL YEAR ROUND
DYEAR=2001
DGENRE=Rock
TTITLE0=I Can't Do It Well
TTITLE1=Make The Sound
TTITLE2=So You're Lucky 21
TTITLE3=All Year Round
TTITLE4=The World Of All
TTITLE5=灯〜ともしび〜
TTITLE6=Style
TTITLE7=口笛
TTITLE8=BONUSTRACK
EXTD=YEAR: 2001
EXTT0=
EXTT1=
EXTT2=
EXTT3=
EXTT4=
EXTT5=
EXTT6=
EXTT7=
EXTT8=
PLAYORDER=
